<mxfile host="app.diagrams.net" agent="Mozilla/5.0 (Windows NT 10.0; Win64; x64) AppleWebKit/537.36 (KHTML, like Gecko) Chrome/141.0.0.0 Safari/537.36" version="28.2.5">
  <diagram name="Page-1" id="1rKJqwg4QirVC6Kc-w28">
    <mxGraphModel dx="1303" dy="701" grid="1" gridSize="10" guides="1" tooltips="1" connect="1" arrows="1" fold="1" page="1" pageScale="1" pageWidth="827" pageHeight="1169" math="0" shadow="0">
      <root>
        <mxCell id="0" />
        <mxCell id="1" parent="0" />
        <mxCell id="eoq-8mOM_a6XKycfwUWu-34" value="" style="rounded=1;whiteSpace=wrap;html=1;" vertex="1" parent="1">
          <mxGeometry x="930" y="260" width="150" height="50" as="geometry" />
        </mxCell>
        <mxCell id="eoq-8mOM_a6XKycfwUWu-56" style="edgeStyle=orthogonalEdgeStyle;rounded=0;orthogonalLoop=1;jettySize=auto;html=1;entryX=0;entryY=0.5;entryDx=0;entryDy=0;" edge="1" parent="1" source="eoq-8mOM_a6XKycfwUWu-1" target="eoq-8mOM_a6XKycfwUWu-7">
          <mxGeometry relative="1" as="geometry" />
        </mxCell>
        <mxCell id="eoq-8mOM_a6XKycfwUWu-1" value="" style="rounded=1;whiteSpace=wrap;html=1;" vertex="1" parent="1">
          <mxGeometry x="10" y="220" width="210" height="220" as="geometry" />
        </mxCell>
        <mxCell id="eoq-8mOM_a6XKycfwUWu-2" value="&lt;b&gt;&lt;font style=&quot;font-size: 14px;&quot;&gt;Data Pipeline&amp;nbsp;&lt;/font&gt;&lt;/b&gt;" style="text;html=1;align=center;verticalAlign=middle;whiteSpace=wrap;rounded=0;" vertex="1" parent="1">
          <mxGeometry x="60" y="230" width="110" height="30" as="geometry" />
        </mxCell>
        <mxCell id="eoq-8mOM_a6XKycfwUWu-3" value="Dataset Acquisition" style="text;html=1;align=center;verticalAlign=middle;whiteSpace=wrap;rounded=0;" vertex="1" parent="1">
          <mxGeometry x="55" y="280" width="115" height="20" as="geometry" />
        </mxCell>
        <mxCell id="eoq-8mOM_a6XKycfwUWu-4" value="Data Preprocessing&amp;nbsp;" style="text;html=1;align=center;verticalAlign=middle;whiteSpace=wrap;rounded=0;" vertex="1" parent="1">
          <mxGeometry x="47.5" y="320" width="130" height="20" as="geometry" />
        </mxCell>
        <mxCell id="eoq-8mOM_a6XKycfwUWu-5" value="Feature Engineering" style="text;html=1;align=center;verticalAlign=middle;whiteSpace=wrap;rounded=0;" vertex="1" parent="1">
          <mxGeometry x="52.5" y="360" width="120" height="20" as="geometry" />
        </mxCell>
        <mxCell id="eoq-8mOM_a6XKycfwUWu-6" value="Windowing" style="text;whiteSpace=wrap;html=1;" vertex="1" parent="1">
          <mxGeometry x="82.5" y="400" width="60" height="20" as="geometry" />
        </mxCell>
        <mxCell id="eoq-8mOM_a6XKycfwUWu-58" style="edgeStyle=orthogonalEdgeStyle;rounded=0;orthogonalLoop=1;jettySize=auto;html=1;entryX=0;entryY=0.5;entryDx=0;entryDy=0;" edge="1" parent="1" source="eoq-8mOM_a6XKycfwUWu-7" target="eoq-8mOM_a6XKycfwUWu-13">
          <mxGeometry relative="1" as="geometry" />
        </mxCell>
        <mxCell id="eoq-8mOM_a6XKycfwUWu-7" value="" style="rounded=1;whiteSpace=wrap;html=1;" vertex="1" parent="1">
          <mxGeometry x="400" y="175" width="360" height="310" as="geometry" />
        </mxCell>
        <mxCell id="eoq-8mOM_a6XKycfwUWu-8" value="&lt;b&gt;&lt;font style=&quot;font-size: 14px;&quot;&gt;&amp;nbsp;Model Search &amp;amp; Training&lt;/font&gt;&lt;/b&gt;&lt;div&gt;&lt;b&gt;&lt;font style=&quot;font-size: 14px;&quot;&gt;&amp;amp; Neural Architecture Search (Optuna)&lt;/font&gt;&lt;/b&gt;&lt;/div&gt;" style="text;html=1;align=center;verticalAlign=middle;whiteSpace=wrap;rounded=0;" vertex="1" parent="1">
          <mxGeometry x="426.24" y="175" width="307.5" height="80" as="geometry" />
        </mxCell>
        <mxCell id="eoq-8mOM_a6XKycfwUWu-13" value="" style="rounded=1;whiteSpace=wrap;html=1;" vertex="1" parent="1">
          <mxGeometry x="900" y="210" width="210" height="240" as="geometry" />
        </mxCell>
        <mxCell id="eoq-8mOM_a6XKycfwUWu-35" value="" style="rounded=1;whiteSpace=wrap;html=1;" vertex="1" parent="1">
          <mxGeometry x="930" y="260" width="160" height="50" as="geometry" />
        </mxCell>
        <mxCell id="eoq-8mOM_a6XKycfwUWu-14" value="&lt;span style=&quot;font-size: 14px;&quot;&gt;&lt;b&gt;Performance Evaluation &amp;amp; Analysis&amp;nbsp;&lt;/b&gt;&lt;/span&gt;" style="text;html=1;align=center;verticalAlign=middle;whiteSpace=wrap;rounded=0;" vertex="1" parent="1">
          <mxGeometry x="910" y="217.5" width="190" height="35" as="geometry" />
        </mxCell>
        <mxCell id="eoq-8mOM_a6XKycfwUWu-32" style="edgeStyle=orthogonalEdgeStyle;rounded=0;orthogonalLoop=1;jettySize=auto;html=1;entryX=0;entryY=0.5;entryDx=0;entryDy=0;" edge="1" parent="1" source="eoq-8mOM_a6XKycfwUWu-15" target="eoq-8mOM_a6XKycfwUWu-31">
          <mxGeometry relative="1" as="geometry" />
        </mxCell>
        <mxCell id="eoq-8mOM_a6XKycfwUWu-15" value="Best Models Selected on test set" style="text;html=1;align=center;verticalAlign=middle;whiteSpace=wrap;rounded=0;" vertex="1" parent="1">
          <mxGeometry x="937.5" y="270" width="72.5" height="30" as="geometry" />
        </mxCell>
        <mxCell id="eoq-8mOM_a6XKycfwUWu-16" value="Pareto Front analysis" style="text;html=1;align=center;verticalAlign=middle;whiteSpace=wrap;rounded=0;" vertex="1" parent="1">
          <mxGeometry x="943.75" y="330" width="130" height="20" as="geometry" />
        </mxCell>
        <mxCell id="eoq-8mOM_a6XKycfwUWu-17" value="Final Forecast Output" style="text;html=1;align=center;verticalAlign=middle;whiteSpace=wrap;rounded=0;" vertex="1" parent="1">
          <mxGeometry x="948.75" y="410" width="120" height="20" as="geometry" />
        </mxCell>
        <mxCell id="eoq-8mOM_a6XKycfwUWu-18" value="&amp;nbsp; Ensemble Averaging" style="text;whiteSpace=wrap;html=1;" vertex="1" parent="1">
          <mxGeometry x="946.25" y="370" width="125" height="20" as="geometry" />
        </mxCell>
        <mxCell id="eoq-8mOM_a6XKycfwUWu-19" value="LSTM&amp;nbsp;" style="rounded=1;whiteSpace=wrap;html=1;" vertex="1" parent="1">
          <mxGeometry x="430" y="255" width="75" height="70" as="geometry" />
        </mxCell>
        <mxCell id="eoq-8mOM_a6XKycfwUWu-20" value="CNN" style="rounded=1;whiteSpace=wrap;html=1;" vertex="1" parent="1">
          <mxGeometry x="541" y="255" width="78" height="70" as="geometry" />
        </mxCell>
        <mxCell id="eoq-8mOM_a6XKycfwUWu-21" value="Transformer" style="rounded=1;whiteSpace=wrap;html=1;" vertex="1" parent="1">
          <mxGeometry x="657.5" y="255" width="80" height="70" as="geometry" />
        </mxCell>
        <mxCell id="eoq-8mOM_a6XKycfwUWu-22" value="Optuna Based Search Engine&amp;nbsp;" style="text;html=1;align=center;verticalAlign=middle;whiteSpace=wrap;rounded=0;" vertex="1" parent="1">
          <mxGeometry x="485" y="365" width="190" height="20" as="geometry" />
        </mxCell>
        <mxCell id="eoq-8mOM_a6XKycfwUWu-24" value="Best Hyperparameter Configuration" style="text;html=1;align=center;verticalAlign=middle;whiteSpace=wrap;rounded=0;" vertex="1" parent="1">
          <mxGeometry x="464.37" y="405" width="231.25" height="20" as="geometry" />
        </mxCell>
        <mxCell id="eoq-8mOM_a6XKycfwUWu-26" style="edgeStyle=orthogonalEdgeStyle;rounded=0;orthogonalLoop=1;jettySize=auto;html=1;entryX=0.23;entryY=0.039;entryDx=0;entryDy=0;entryPerimeter=0;" edge="1" parent="1" source="eoq-8mOM_a6XKycfwUWu-19" target="eoq-8mOM_a6XKycfwUWu-22">
          <mxGeometry relative="1" as="geometry" />
        </mxCell>
        <mxCell id="eoq-8mOM_a6XKycfwUWu-27" style="edgeStyle=orthogonalEdgeStyle;rounded=0;orthogonalLoop=1;jettySize=auto;html=1;entryX=0.5;entryY=0;entryDx=0;entryDy=0;" edge="1" parent="1" source="eoq-8mOM_a6XKycfwUWu-20" target="eoq-8mOM_a6XKycfwUWu-22">
          <mxGeometry relative="1" as="geometry">
            <mxPoint x="580" y="345" as="targetPoint" />
          </mxGeometry>
        </mxCell>
        <mxCell id="eoq-8mOM_a6XKycfwUWu-29" style="edgeStyle=orthogonalEdgeStyle;rounded=0;orthogonalLoop=1;jettySize=auto;html=1;entryX=0.789;entryY=0.007;entryDx=0;entryDy=0;entryPerimeter=0;" edge="1" parent="1" source="eoq-8mOM_a6XKycfwUWu-21" target="eoq-8mOM_a6XKycfwUWu-22">
          <mxGeometry relative="1" as="geometry" />
        </mxCell>
        <mxCell id="eoq-8mOM_a6XKycfwUWu-30" value="Final Training &amp;amp; Evaluation on training set" style="text;html=1;align=center;verticalAlign=middle;whiteSpace=wrap;rounded=0;" vertex="1" parent="1">
          <mxGeometry x="464.37" y="445" width="231.25" height="20" as="geometry" />
        </mxCell>
        <mxCell id="eoq-8mOM_a6XKycfwUWu-31" value="Metrics&amp;nbsp;" style="text;html=1;align=center;verticalAlign=middle;whiteSpace=wrap;rounded=0;" vertex="1" parent="1">
          <mxGeometry x="1032.5" y="270" width="50" height="30" as="geometry" />
        </mxCell>
        <mxCell id="eoq-8mOM_a6XKycfwUWu-40" value="" style="endArrow=classic;html=1;rounded=0;exitX=0.5;exitY=1;exitDx=0;exitDy=0;entryX=0.5;entryY=0;entryDx=0;entryDy=0;" edge="1" parent="1" source="eoq-8mOM_a6XKycfwUWu-35" target="eoq-8mOM_a6XKycfwUWu-16">
          <mxGeometry width="50" height="50" relative="1" as="geometry">
            <mxPoint x="960" y="330" as="sourcePoint" />
            <mxPoint x="1010" y="320" as="targetPoint" />
          </mxGeometry>
        </mxCell>
        <mxCell id="eoq-8mOM_a6XKycfwUWu-45" value="" style="endArrow=classic;html=1;rounded=0;exitX=0.5;exitY=1;exitDx=0;exitDy=0;" edge="1" parent="1" source="eoq-8mOM_a6XKycfwUWu-16" target="eoq-8mOM_a6XKycfwUWu-18">
          <mxGeometry width="50" height="50" relative="1" as="geometry">
            <mxPoint x="1000" y="340" as="sourcePoint" />
            <mxPoint x="1000" y="360" as="targetPoint" />
          </mxGeometry>
        </mxCell>
        <mxCell id="eoq-8mOM_a6XKycfwUWu-46" value="" style="endArrow=classic;html=1;rounded=0;exitX=0.5;exitY=1;exitDx=0;exitDy=0;entryX=0.5;entryY=0.086;entryDx=0;entryDy=0;entryPerimeter=0;" edge="1" parent="1" source="eoq-8mOM_a6XKycfwUWu-18" target="eoq-8mOM_a6XKycfwUWu-17">
          <mxGeometry width="50" height="50" relative="1" as="geometry">
            <mxPoint x="1008.63" y="400" as="sourcePoint" />
            <mxPoint x="1008.63" y="420" as="targetPoint" />
          </mxGeometry>
        </mxCell>
        <mxCell id="eoq-8mOM_a6XKycfwUWu-50" value="" style="endArrow=classic;html=1;rounded=0;exitX=0.5;exitY=1;exitDx=0;exitDy=0;" edge="1" parent="1" source="eoq-8mOM_a6XKycfwUWu-22" target="eoq-8mOM_a6XKycfwUWu-24">
          <mxGeometry width="50" height="50" relative="1" as="geometry">
            <mxPoint x="630" y="395" as="sourcePoint" />
            <mxPoint x="630" y="415" as="targetPoint" />
          </mxGeometry>
        </mxCell>
        <mxCell id="eoq-8mOM_a6XKycfwUWu-51" value="" style="endArrow=classic;html=1;rounded=0;exitX=0.5;exitY=1;exitDx=0;exitDy=0;entryX=0.5;entryY=0;entryDx=0;entryDy=0;" edge="1" parent="1" source="eoq-8mOM_a6XKycfwUWu-24" target="eoq-8mOM_a6XKycfwUWu-30">
          <mxGeometry width="50" height="50" relative="1" as="geometry">
            <mxPoint x="700" y="385" as="sourcePoint" />
            <mxPoint x="700" y="405" as="targetPoint" />
          </mxGeometry>
        </mxCell>
        <mxCell id="eoq-8mOM_a6XKycfwUWu-52" value="" style="endArrow=classic;html=1;rounded=0;exitX=0.5;exitY=1;exitDx=0;exitDy=0;" edge="1" parent="1" source="eoq-8mOM_a6XKycfwUWu-3" target="eoq-8mOM_a6XKycfwUWu-4">
          <mxGeometry width="50" height="50" relative="1" as="geometry">
            <mxPoint x="160" y="280" as="sourcePoint" />
            <mxPoint x="160" y="300" as="targetPoint" />
          </mxGeometry>
        </mxCell>
        <mxCell id="eoq-8mOM_a6XKycfwUWu-54" value="" style="endArrow=classic;html=1;rounded=0;exitX=0.5;exitY=1;exitDx=0;exitDy=0;entryX=0.5;entryY=0;entryDx=0;entryDy=0;" edge="1" parent="1" source="eoq-8mOM_a6XKycfwUWu-4" target="eoq-8mOM_a6XKycfwUWu-5">
          <mxGeometry width="50" height="50" relative="1" as="geometry">
            <mxPoint x="250" y="290" as="sourcePoint" />
            <mxPoint x="250" y="310" as="targetPoint" />
          </mxGeometry>
        </mxCell>
        <mxCell id="eoq-8mOM_a6XKycfwUWu-55" value="" style="endArrow=classic;html=1;rounded=0;exitX=0.5;exitY=1;exitDx=0;exitDy=0;" edge="1" parent="1" source="eoq-8mOM_a6XKycfwUWu-5" target="eoq-8mOM_a6XKycfwUWu-6">
          <mxGeometry width="50" height="50" relative="1" as="geometry">
            <mxPoint x="240" y="370" as="sourcePoint" />
            <mxPoint x="240" y="390" as="targetPoint" />
          </mxGeometry>
        </mxCell>
        <mxCell id="eoq-8mOM_a6XKycfwUWu-57" value="&lt;font style=&quot;font-size: 13px;&quot;&gt;windows (train/val/test) feed into Optuna trials&lt;/font&gt;" style="text;html=1;align=center;verticalAlign=middle;whiteSpace=wrap;rounded=0;" vertex="1" parent="1">
          <mxGeometry x="220" y="280" width="170" height="65" as="geometry" />
        </mxCell>
        <mxCell id="eoq-8mOM_a6XKycfwUWu-59" value="Best config(s) for final test evaluation &amp; analysis" style="text;whiteSpace=wrap;fontSize=13;" vertex="1" parent="1">
          <mxGeometry x="770" y="280" width="120" height="60" as="geometry" />
        </mxCell>
      </root>
    </mxGraphModel>
  </diagram>
</mxfile>
